<svg xmlns="http://www.w3.org/2000/svg" viewBox="0 0 35.469 20.95">
    <path d="M19.355,14.709h1.334c.071-.383-.057-.71-.483-.71A.823.823,0,0,0,19.355,14.709Zm-7.508.71a1.192,1.192,0,0,0-.923.1c-.341.234-.44.646-.085.781a.71.71,0,0,0,.923-.454ZM36.3,15.3a1.3,1.3,0,0,0-.071-.958c-.326-.44-1.086-.092-1.32.766-.149.561.177.986.546.986s.646-.319.837-.795Zm-6.33.121a1.192,1.192,0,0,0-.923.1c-.341.234-.44.646-.085.781a.71.71,0,0,0,.923-.454Z" transform="translate(-3.622 -4.243)" fill="#1c5377"/>
    <path d="M24.9,0a10.37,10.37,0,0,0-6.6,2.353A11.285,11.285,0,0,1,21.29,7.242h-.873a10.475,10.475,0,0,0-2.751-4.33,10.475,10.475,0,0,0-2.73,4.323H14.07a11.306,11.306,0,0,1,2.961-4.888,10.482,10.482,0,1,0,0,16.243A11.3,11.3,0,0,1,14.07,13.7h.873a10.475,10.475,0,0,0,2.73,4.323,10.475,10.475,0,0,0,2.751-4.33H21.3a11.285,11.285,0,0,1-2.989,4.888A10.475,10.475,0,1,0,24.9,0ZM5.822,12.933h-1.1l.622-3.3-1.473,3.3h-1l-.286-3.38-.649,3.38H.892L1.8,8.261H3.476l.2,2.835L4.963,8.261H6.7Zm2.619,0-.133-.216a1.4,1.4,0,0,1-.88.23,1.027,1.027,0,0,1-1.11-1.173c.3-1.62,2.186-1.327,2.458-1.348.119-.58-.286-.524-.649-.538a11.55,11.55,0,0,0-1.313.119l.161-.838h0a7.2,7.2,0,0,1,1.4-.133c1.767,0,1.592,1.271,1.487,1.795L9.44,12.926Zm4.288-1.061c-.175,1.159-1.432,1.1-1.69,1.1A4.288,4.288,0,0,1,9.761,12.8l.147-.8a4.19,4.19,0,0,0,1.4.1.307.307,0,0,0,.133-.58c-.216-.1-.447-.272-.852-.447-.251-.112-.517-.405-.363-1.124.2-.936,1.46-.922,1.606-.922a2.514,2.514,0,0,1,1.041.147l-.244.782h0A3.45,3.45,0,0,0,11.584,9.9c-.391.1-.23.475,0,.566a5.95,5.95,0,0,1,.754.419A.845.845,0,0,1,12.729,11.872Zm1.823.922a1.494,1.494,0,0,1-.782.189c-.244,0-1.041-.147-.838-1.2l.7-3.673h1.054l-.189.971h.566l-.189.838h-.538l-.3,1.564c-.056.3,0,.566.58.475Zm3.673-1.62h-2.3c-.119.88.552.852.971.852a7.682,7.682,0,0,0,1.187-.1l-.161.8a3.6,3.6,0,0,1-1.355.175,1.69,1.69,0,0,1-1.76-1.962A2.031,2.031,0,0,1,16.772,9c1.851,0,1.564,1.543,1.446,2.165Zm1.4,0-.321,1.76H18.26l.7-3.834h.908l.1.377a1.264,1.264,0,0,1,1.006-.4L20.7,10.091c-.251.021-.754-.063-1.061,1.082Zm4.427-1.837h0a1.341,1.341,0,0,0-.81-.189,1.453,1.453,0,0,0-1.285,1.285c-.175,1.124.594,1.676,1.676,1.313l.307.943a2.793,2.793,0,0,1-1.285.244c-1.1,0-2.284-.971-1.746-2.947a2.542,2.542,0,0,1,2.4-1.955,1.746,1.746,0,0,1,1.446.622l-.7.7Zm2.214,3.6-.133-.216a1.4,1.4,0,0,1-.88.23,1.027,1.027,0,0,1-1.11-1.173c.3-1.62,2.186-1.327,2.458-1.348.119-.58-.286-.524-.649-.538a11.55,11.55,0,0,0-1.313.119l.161-.838h0a7.193,7.193,0,0,1,1.4-.133c1.767,0,1.592,1.271,1.487,1.795l-.419,2.095Zm2.793-1.781-.328,1.774H27.673l.7-3.876h.943l.1.384a1.271,1.271,0,0,1,1.006-.356l-.286,1.013c-.258-.028-.747-.1-1.061,1.082Zm3.317,1.781-.133-.307a1.851,1.851,0,0,1-.922.307c-.754,0-1.453-1.068-1.11-2.242.51-1.76,1.4-1.648,2-1.648s.622.307.824.461h0l.286-1.487h1.11L33.5,12.905Z" transform="translate(0.052 0)" fill="#1c5377"/>
</svg>
