<svg xmlns="http://www.w3.org/2000/svg" viewBox="0 0 45.256 14.682" class="icon icon_visa">
    <path class="icon-fill" d="M19.619,14.437H15.926L18.234.253h3.693ZM12.82.253,9.3,10.009l-.417-2.1h0L7.64,1.531A1.581,1.581,0,0,0,5.889.253H.068L0,.495a13.786,13.786,0,0,1,3.863,1.62L7.071,14.438h3.847L16.794.253ZM41.865,14.437h3.391L42.3.253H39.331a1.7,1.7,0,0,0-1.7,1.057L32.12,14.437h3.85l.77-2.108h4.694l.433,2.108ZM37.8,9.42l1.94-5.308L40.833,9.42ZM32.408,3.664,32.935.618A10.659,10.659,0,0,0,29.613,0c-1.833,0-6.184.8-6.184,4.7,0,3.664,5.108,3.71,5.108,5.636s-4.582,1.58-6.093.366l-.549,3.185a10.35,10.35,0,0,0,4.168.8c2.519,0,6.322-1.3,6.322-4.856,0-3.688-5.154-4.031-5.154-5.634s3.6-1.4,5.177-.527Z" fill="#1c5377"/>
</svg>
