<svg xmlns="http://www.w3.org/2000/svg" viewBox="0 0 73.567 20.336" class="icon icon_bobra">
    <g transform="translate(-0.982)">
        <g transform="translate(0.982 0)">
            <path d="M2.153,7.3V9.856H1.29V3.31H3.7a2.427,2.427,0,0,1,1.685.549,1.859,1.859,0,0,1,.6,1.452A1.837,1.837,0,0,1,5.4,6.78,2.543,2.543,0,0,1,3.686,7.3Zm0-.706H3.7a1.55,1.55,0,0,0,1.062-.327,1.186,1.186,0,0,0,.369-.943,1.238,1.238,0,0,0-.369-.938,1.449,1.449,0,0,0-1.012-.365h-1.6Z" transform="translate(-1.118 -2.874)" fill="#1d5a8e"/>
            <path d="M46.131,20.353a1.726,1.726,0,0,1-.111-.51,1.855,1.855,0,0,1-1.385.6,1.721,1.721,0,0,1-1.186-.407,1.317,1.317,0,0,1-.46-1.033,1.377,1.377,0,0,1,.578-1.186,2.727,2.727,0,0,1,1.626-.42H46v-.378a.935.935,0,0,0-.263-.694,1.042,1.042,0,0,0-.769-.263,1.215,1.215,0,0,0-.747.224.659.659,0,0,0-.3.544h-.839a1.149,1.149,0,0,1,.263-.7,1.761,1.761,0,0,1,.7-.532,2.371,2.371,0,0,1,.975-.2,1.924,1.924,0,0,1,1.317.42,1.523,1.523,0,0,1,.5,1.158v2.24A2.755,2.755,0,0,0,47,20.283v.07Zm-1.381-.631a1.449,1.449,0,0,0,.743-.2A1.219,1.219,0,0,0,46,18.992v-1h-.653q-1.53,0-1.53.895a.76.76,0,0,0,.264.613,1.008,1.008,0,0,0,.668.22Z" transform="translate(-37.323 -13.37)" fill="#1d5a8e"/>
            <path d="M82.921,2.4a1.875,1.875,0,0,1,1.469.614,2.33,2.33,0,0,1,.551,1.617V4.7a2.767,2.767,0,0,1-.264,1.23,1.976,1.976,0,0,1-.763.842,2.179,2.179,0,0,1-1.145.3,2.038,2.038,0,0,1-1.581-.659,2.5,2.5,0,0,1-.6-1.756v-.4a4.538,4.538,0,0,1,.569-2.437A2.382,2.382,0,0,1,82.84.719a2.253,2.253,0,0,0,.85-.274A.527.527,0,0,0,83.911,0H84.6a1.367,1.367,0,0,1-.254.877,1.423,1.423,0,0,1-.814.44l-.621.145a2.084,2.084,0,0,0-1.113.592,2.136,2.136,0,0,0-.484,1.108A2.053,2.053,0,0,1,82.921,2.4Zm-.162.684a1.225,1.225,0,0,0-.971.411,1.651,1.651,0,0,0-.353,1.141V4.7a1.943,1.943,0,0,0,.362,1.24,1.278,1.278,0,0,0,1.959,0,2.137,2.137,0,0,0,.36-1.34,1.623,1.623,0,0,0-.362-1.1,1.24,1.24,0,0,0-.995-.419Z" transform="translate(-69.97 0)" fill="#1d5a8e"/>
            <path d="M119,17.868a2.859,2.859,0,0,1,.282-1.286,2.1,2.1,0,0,1,.783-.883,2.13,2.13,0,0,1,1.145-.31,2.05,2.05,0,0,1,1.611.688,2.639,2.639,0,0,1,.614,1.831v.063a2.909,2.909,0,0,1-.271,1.275,2.075,2.075,0,0,1-.779.88,2.158,2.158,0,0,1-1.163.315,2.051,2.051,0,0,1-1.6-.689A2.643,2.643,0,0,1,119,17.926Zm.837.1a2.083,2.083,0,0,0,.375,1.3,1.274,1.274,0,0,0,2.013,0,2.288,2.288,0,0,0,.374-1.393,2.083,2.083,0,0,0-.381-1.3,1.209,1.209,0,0,0-1.009-.5,1.2,1.2,0,0,0-.995.49,2.262,2.262,0,0,0-.373,1.4Z" transform="translate(-103.318 -13.361)" fill="#1d5a8e"/>
            <path d="M160.5,16.755h-1.632v4.189h-.833V16.755h-1.6V16.08H160.5Z" transform="translate(-135.819 -13.962)" fill="#1d5a8e"/>
            <path d="M194.939,20.318a1.769,1.769,0,0,1-.117-.512,1.855,1.855,0,0,1-1.385.6A1.721,1.721,0,0,1,192.252,20a1.317,1.317,0,0,1-.461-1.033,1.377,1.377,0,0,1,.578-1.186,2.731,2.731,0,0,1,1.626-.42h.81v-.375a.935.935,0,0,0-.263-.694,1.042,1.042,0,0,0-.769-.263,1.215,1.215,0,0,0-.747.224.659.659,0,0,0-.3.544h-.837a1.147,1.147,0,0,1,.264-.7,1.762,1.762,0,0,1,.7-.538,2.372,2.372,0,0,1,.975-.2,1.924,1.924,0,0,1,1.317.42,1.519,1.519,0,0,1,.493,1.163v2.24a2.754,2.754,0,0,0,.17,1.066v.07Zm-1.381-.634a1.449,1.449,0,0,0,.742-.2,1.219,1.219,0,0,0,.509-.527V17.96h-.659q-1.53,0-1.53.895a.76.76,0,0,0,.263.613,1.008,1.008,0,0,0,.675.22Z" transform="translate(-166.52 -13.335)" fill="#1d5a8e"/>
            <path d="M231.514,20.447A2.125,2.125,0,0,1,229.9,19.8a2.411,2.411,0,0,1-.622-1.738v-.153a2.921,2.921,0,0,1,.277-1.294,2.157,2.157,0,0,1,.775-.891A1.939,1.939,0,0,1,231.4,15.4a1.82,1.82,0,0,1,1.476.624,2.723,2.723,0,0,1,.527,1.79v.346h-3.294a1.729,1.729,0,0,0,.42,1.163,1.317,1.317,0,0,0,1.024.443,1.439,1.439,0,0,0,.747-.18,1.867,1.867,0,0,0,.535-.476l.509.4A2.041,2.041,0,0,1,231.514,20.447Zm-.1-4.363a1.112,1.112,0,0,0-.846.366,1.785,1.785,0,0,0-.423,1.028h2.439v-.063a1.592,1.592,0,0,0-.341-.983A1.054,1.054,0,0,0,231.41,16.084Z" transform="translate(-199.068 -13.371)" fill="#1d5a8e"/>
            <path d="M268.247,16.755h-1.634v4.189h-.831V16.755h-1.6V16.08h4.067Z" transform="translate(-229.373 -13.962)" fill="#1d5a8e"/>
            <path d="M322.929,20.944H322.1V18.869h-2.24v2.075h-.837V16.08h.837v2.108h2.24V16.08h.833Z" transform="translate(-276.988 -13.962)" fill="#1d5a8e"/>
            <path d="M360.869,20.318a1.739,1.739,0,0,1-.116-.512,1.86,1.86,0,0,1-1.386.6A1.713,1.713,0,0,1,358.181,20a1.317,1.317,0,0,1-.461-1.033,1.374,1.374,0,0,1,.578-1.186,2.723,2.723,0,0,1,1.626-.42h.809v-.375a.935.935,0,0,0-.263-.694,1.048,1.048,0,0,0-.769-.263,1.208,1.208,0,0,0-.746.224.659.659,0,0,0-.3.544h-.837a1.148,1.148,0,0,1,.264-.7,1.767,1.767,0,0,1,.7-.538,2.36,2.36,0,0,1,.974-.2,1.921,1.921,0,0,1,1.317.42,1.514,1.514,0,0,1,.5,1.163v2.24a2.729,2.729,0,0,0,.171,1.066v.07Zm-1.381-.634a1.459,1.459,0,0,0,.743-.2,1.216,1.216,0,0,0,.507-.527V17.96h-.652q-1.53,0-1.53.895a.76.76,0,0,0,.263.613,1.008,1.008,0,0,0,.668.22Z" transform="translate(-310.589 -13.335)" fill="#1d5a8e"/>
            <path d="M415.039,2.4a1.877,1.877,0,0,1,1.469.614,2.337,2.337,0,0,1,.551,1.617V4.7a2.746,2.746,0,0,1-.263,1.23,1.976,1.976,0,0,1-.761.842,2.182,2.182,0,0,1-1.145.3,2.041,2.041,0,0,1-1.581-.659,2.521,2.521,0,0,1-.6-1.756v-.4a4.538,4.538,0,0,1,.569-2.437,2.382,2.382,0,0,1,1.681-1.1,2.265,2.265,0,0,0,.85-.274A.527.527,0,0,0,416.029,0h.684a1.36,1.36,0,0,1-.254.877,1.424,1.424,0,0,1-.812.44l-.621.14a2.071,2.071,0,0,0-1.113.592,2.125,2.125,0,0,0-.483,1.113,2.05,2.05,0,0,1,1.61-.764Zm-.162.684a1.224,1.224,0,0,0-.971.411,1.662,1.662,0,0,0-.361,1.141V4.7a1.942,1.942,0,0,0,.362,1.24,1.278,1.278,0,0,0,1.959,0,2.137,2.137,0,0,0,.36-1.34,1.617,1.617,0,0,0-.362-1.1A1.238,1.238,0,0,0,414.877,3.082Z" transform="translate(-358.335 0)" fill="#1d5a8e"/>
            <path d="M454.86,20.318a1.726,1.726,0,0,1-.117-.512,1.858,1.858,0,0,1-1.386.6A1.713,1.713,0,0,1,452.171,20a1.318,1.318,0,0,1-.461-1.033,1.374,1.374,0,0,1,.578-1.186,2.723,2.723,0,0,1,1.626-.42h.81v-.375a.936.936,0,0,0-.263-.694,1.043,1.043,0,0,0-.769-.263,1.215,1.215,0,0,0-.747.224.665.665,0,0,0-.3.544h-.837a1.149,1.149,0,0,1,.263-.7,1.761,1.761,0,0,1,.7-.538,2.371,2.371,0,0,1,.975-.2,1.924,1.924,0,0,1,1.317.42,1.518,1.518,0,0,1,.5,1.163v2.24a2.753,2.753,0,0,0,.171,1.066v.07Zm-1.381-.634a1.449,1.449,0,0,0,.742-.2,1.226,1.226,0,0,0,.508-.527V17.96h-.652q-1.53,0-1.53.895a.76.76,0,0,0,.263.613,1.008,1.008,0,0,0,.668.22Z" transform="translate(-392.196 -13.335)" fill="#1d5a8e"/>
            <path d="M492,16.839a.649.649,0,0,0-.263-.543,1.333,1.333,0,0,0-1.449.029.675.675,0,0,0-.3.54h-.827a1.251,1.251,0,0,1,.527-1.039,2.482,2.482,0,0,1,2.659-.037,1.241,1.241,0,0,1,.477,1.046,1,1,0,0,1-.191.6,1.348,1.348,0,0,1-.561.437,1.112,1.112,0,0,1,.85,1.132,1.257,1.257,0,0,1-.518,1.061,2.577,2.577,0,0,1-2.768-.016,1.317,1.317,0,0,1-.547-1.113h.827a.755.755,0,0,0,.318.609,1.217,1.217,0,0,0,.79.254,1.252,1.252,0,0,0,.766-.221.684.684,0,0,0,.292-.57.673.673,0,0,0-.24-.586,1.308,1.308,0,0,0-.763-.178h-.831v-.706h.9C491.717,17.525,492,17.29,492,16.839Z" transform="translate(-424.657 -13.388)" fill="#1d5a8e"/>
            <path d="M526.987,20.447a2.128,2.128,0,0,1-1.61-.651,2.414,2.414,0,0,1-.621-1.738v-.153a2.922,2.922,0,0,1,.277-1.294,2.163,2.163,0,0,1,.773-.891,1.943,1.943,0,0,1,1.078-.321,1.825,1.825,0,0,1,1.476.624,2.7,2.7,0,0,1,.527,1.79v.346h-3.294a1.729,1.729,0,0,0,.42,1.163,1.318,1.318,0,0,0,1.014.443,1.435,1.435,0,0,0,.746-.18,1.854,1.854,0,0,0,.536-.476l.507.4A2.026,2.026,0,0,1,526.987,20.447Zm-.1-4.363a1.112,1.112,0,0,0-.846.366,1.785,1.785,0,0,0-.423,1.028h2.439v-.063a1.592,1.592,0,0,0-.343-.983A1.046,1.046,0,0,0,526.885,16.084Z" transform="translate(-455.62 -13.371)" fill="#1d5a8e"/>
            <ellipse cx="2.133" cy="2.23" rx="2.133" ry="2.23" transform="translate(19.641 10.47)" fill="#1d5a8e"/>
            <path d="M196.4,100.41a9.541,9.541,0,0,1-5.058,5.611" transform="translate(-166.13 -87.182)" fill="#1d5a8e"/>
            <path d="M190.47,143.02l.115-.05Z" transform="translate(-165.374 -124.134)" fill="#1d5a8e"/>
            <path d="M29.269,80.343c-.5,0-.771.4-1.095,1.132-.132.291-.257.619-.372.85l-.034.055a6.941,6.941,0,0,1-12.222.361c-.574-.922-1.617-2.02-4.781-2.916-3.008-.855-8.826-.706-10.345.323s1.352,2.1,1.921,2.45c.541.332,2.689,1.025,1.991,5q-.055.312-.132.652a1.537,1.537,0,0,0-.065.586.27.27,0,0,0,.256.195H4.4a.941.941,0,0,0,.406-.165c.437-.224,1.591-2.041,3.7-2.041,3.186,0,2.757,2.205,9.334,2.205a17.961,17.961,0,0,0,7.238-1.317l.115-.05a9.538,9.538,0,0,0,5.056-5.607,2.929,2.929,0,0,0,.12-.568A1.087,1.087,0,0,0,29.269,80.343Z" transform="translate(0.018 -68.825)" fill="#1d5a8e"/>
            <path d="M277.566,83.511a3.2,3.2,0,0,1,4.86-.109,3.81,3.81,0,0,1-.028,5.118,3.179,3.179,0,0,1-2.411,1.063A3.331,3.331,0,0,1,277.4,88.3a3.468,3.468,0,0,1-.808-2.408c0-.667.011-5.959.011-5.959h.271a.718.718,0,0,1,.7.735Zm2.382,5.067a2.252,2.252,0,0,0,1.736-.79,2.672,2.672,0,0,0,.718-1.844,2.718,2.718,0,0,0-.693-1.855,2.225,2.225,0,0,0-1.74-.79,2.31,2.31,0,0,0-1.744.726,2.6,2.6,0,0,0-.706,1.864,2.721,2.721,0,0,0,.706,1.908,2.25,2.25,0,0,0,1.729.783Z" transform="translate(-240.148 -69.4)" fill="#1d5a8e" stroke="#1d5a8e" stroke-miterlimit="10" stroke-width="0.25"/>
            <path d="M344.579,97.657a3.162,3.162,0,0,1,2.408,1.067,3.821,3.821,0,0,1,.012,5.118,3.294,3.294,0,0,1-4.847,0,3.81,3.81,0,0,1,0-5.118A3.175,3.175,0,0,1,344.579,97.657Zm0,6.255a2.24,2.24,0,0,0,1.7-.76,2.606,2.606,0,0,0,.7-1.834,2.667,2.667,0,0,0-.715-1.859,2.213,2.213,0,0,0-3.382,0,2.693,2.693,0,0,0-.709,1.866,2.635,2.635,0,0,0,.685,1.834A2.225,2.225,0,0,0,344.579,103.912Z" transform="translate(-296.216 -84.791)" fill="#1d5a8e" stroke="#1d5a8e" stroke-miterlimit="10" stroke-width="0.25"/>
            <path d="M475.332,97.945l-.233.4a.765.765,0,0,1-.676.369h0a.855.855,0,0,0-.673.383,2.6,2.6,0,0,0-.451,1.005,11.1,11.1,0,0,0-.15,2.24V104.7H472.14V97.845h.3a.726.726,0,0,1,.709.742h0a2.635,2.635,0,0,1,.607-.692,1.145,1.145,0,0,1,.7-.225A1.844,1.844,0,0,1,475.332,97.945Z" transform="translate(-409.936 -84.802)" fill="#1d5a8e" stroke="#1d5a8e" stroke-miterlimit="10" stroke-width="0.25"/>
            <path d="M512.495,104.978h-.971v-1.329a3.191,3.191,0,0,1-2.462,1.232,3.132,3.132,0,0,1-2.385-1.074,3.653,3.653,0,0,1-.991-2.562,3.594,3.594,0,0,1,1-2.551,3.316,3.316,0,0,1,5.006.158,3.443,3.443,0,0,1,.814,2.572Zm-3.363-1.064a2.3,2.3,0,0,0,1.713-.754,2.612,2.612,0,0,0,.721-1.879,2.657,2.657,0,0,0-.709-1.884,2.282,2.282,0,0,0-1.735-.76,2.251,2.251,0,0,0-1.736.79,2.68,2.68,0,0,0-.707,1.854,2.647,2.647,0,0,0,.721,1.852,2.266,2.266,0,0,0,1.734.78Z" transform="translate(-439.062 -84.767)" fill="#1d5a8e" stroke="#1d5a8e" stroke-miterlimit="10" stroke-width="0.25"/>
            <path d="M409.636,83a3.195,3.195,0,0,1,4.86-.109,3.809,3.809,0,0,1-.028,5.117,3.162,3.162,0,0,1-2.41,1.063,3.323,3.323,0,0,1-2.59-1.286,3.463,3.463,0,0,1-.809-2.407c0-.667.011-5.96.011-5.96h.271a.717.717,0,0,1,.7.735Zm2.382,5.066a2.253,2.253,0,0,0,1.738-.79,2.68,2.68,0,0,0,.718-1.852,2.714,2.714,0,0,0-.694-1.844,2.225,2.225,0,0,0-1.74-.79,2.307,2.307,0,0,0-1.748.738,2.6,2.6,0,0,0-.706,1.863,2.726,2.726,0,0,0,.7,1.9A2.249,2.249,0,0,0,412.018,88.068Z" transform="translate(-354.819 -68.957)" fill="#1d5a8e" stroke="#1d5a8e" stroke-miterlimit="10" stroke-width="0.25"/>
        </g>
    </g>
</svg>
