<svg width="10" height="16" viewBox="0 0 10 16" fill="none" xmlns="http://www.w3.org/2000/svg">
<path d="M1.33333 15.8003L9.76923 8.5215C9.8547 8.43273 9.91453 8.34752 9.94872 8.26585C9.98291 8.18478 10 8.09986 10 8.0111C10 7.92233 9.98291 7.83711 9.94872 7.75545C9.91453 7.67438 9.8547 7.58946 9.76923 7.50069L1.30769 0.199723C1.17094 0.0665743 0.999999 0 0.794871 0C0.589743 0 0.410255 0.0739713 0.25641 0.221914C0.102564 0.355062 0.0256405 0.513953 0.0256405 0.698585C0.0256405 0.88381 0.102564 1.0356 0.25641 1.15395L8.15385 8.0111L0.230768 14.8682C0.0769215 15.0014 -9.53674e-07 15.1529 -9.53674e-07 15.3227C-9.53674e-07 15.4931 0.0854692 15.6523 0.25641 15.8003C0.410255 15.9334 0.589743 16 0.794871 16C0.999999 16 1.17949 15.9334 1.33333 15.8003Z" fill="white"/>
</svg>
