<svg xmlns="http://www.w3.org/2000/svg" viewBox="0 0 45.492 20.211" class="icon icon_sho">
    <path d="M45.477,20.211H5.892V9.439L0,6.592,5.907,3.745V0H45.492Zm-37.7-1.66H43.6V1.88H7.772V4.925L4.309,6.592,7.772,8.267Z" fill="#1d5a8e"/>
    <path d="M16.883,8.134a1.9,1.9,0,0,0-.3-1.142,1.149,1.149,0,0,0-.952-.411,1.226,1.226,0,0,0-.883.335,1.8,1.8,0,0,0-.35,1.271,2.6,2.6,0,0,0,.266,1.34,1.629,1.629,0,0,0,.822.556l1.1.4A3.136,3.136,0,0,1,18.2,11.514a3.388,3.388,0,0,1,.54,2.162v.419a4,4,0,0,1-.86,2.771,3.235,3.235,0,0,1-2.337.822A3,3,0,0,1,13.031,16.6a3.882,3.882,0,0,1-.571-2.109v-.4h1.8v.343a1.888,1.888,0,0,0,.282,1.1,1.241,1.241,0,0,0,.99.411,1.3,1.3,0,0,0,1.149-.457,1.979,1.979,0,0,0,.289-1.233V13.8a2.345,2.345,0,0,0-.289-1.286,1.873,1.873,0,0,0-.86-.556l-1.309-.464A2.489,2.489,0,0,1,12.871,10.1,4.453,4.453,0,0,1,12.6,8.279V7.921A3.136,3.136,0,0,1,13.533,5.6a2.946,2.946,0,0,1,2.17-.761c1.8,0,2.992,1.157,2.992,3.235v.411H16.883Z" transform="translate(-2.975 -1.154)" fill="#1d5a8e"/>
    <path d="M24.577,5.06v5.382H27V5.06h1.8V17.575H27V12.048H24.577v5.527h-1.8V5.06Z" transform="translate(-5.439 -1.208)" fill="#1d5a8e"/>
    <path d="M32.914,8.294A3.258,3.258,0,0,1,33.85,5.63a3.441,3.441,0,0,1,4.408,0,3.258,3.258,0,0,1,.936,2.664v5.938a3.258,3.258,0,0,1-.936,2.664,3.441,3.441,0,0,1-4.408,0,3.258,3.258,0,0,1-.936-2.664ZM37.4,8a1.37,1.37,0,0,0-.373-1.089,1.522,1.522,0,0,0-1.941,0A1.37,1.37,0,0,0,34.71,8v6.471a1.37,1.37,0,0,0,.373,1.142,1.522,1.522,0,0,0,1.941,0,1.37,1.37,0,0,0,.373-1.089Z" transform="translate(-7.854 -1.153)" fill="#1d5a8e"/>
    <path d="M44.742,12.943a2.406,2.406,0,0,1,.609-1.827l1.02-1.591a2.177,2.177,0,0,0,.3-1.18V7.584a.952.952,0,0,0-.266-.761.974.974,0,0,0-.761-.251.868.868,0,0,0-.716.3,1.279,1.279,0,0,0-.221.761v.837H42.93V7.4a2.619,2.619,0,0,1,1-2.055A2.786,2.786,0,0,1,45.6,4.828a2.961,2.961,0,0,1,2.063.678,2.474,2.474,0,0,1,.807,1.873v.99a3.334,3.334,0,0,1-.411,1.835L46.789,12.19a2.093,2.093,0,0,0-.274,1.218v1.02H44.742Zm1.88,2.6v1.972H44.65V15.547Z" transform="translate(-10.25 -1.152)" fill="#1d5a8e"/>
    <path d="M54.024,5.06l-.419,9.386H52.174l-.3-9.386ZM53.88,15.6v1.972H51.908V15.6Z" transform="translate(-12.384 -1.208)" fill="#1d5a8e"/>
</svg>
