<svg xmlns="http://www.w3.org/2000/svg" class="icon icon_kyivstar" viewBox="0 0 12 11.542">
    <g transform="translate(314.808 -276.088)">
        <g transform="translate(-314.808 276.088)">
            <path d="M-295.565,280.182a.735.735,0,0,1-.735-.735v-2.712a.735.735,0,0,1,.735-.735.736.736,0,0,1,.735.735v2.712a.735.735,0,0,1-.735.735"
                  transform="translate(301.57 -276)" fill="#2f9dfb"/>
            <path d="M-311.95,292.07a.732.732,0,0,1-.912.482l-2.56-.836a.749.749,0,0,1-.482-.938.732.732,0,0,1,.912-.482l2.56.836a.749.749,0,0,1,.482.938"
                  transform="translate(315.939 -286.412)" fill="#2f9dfb"/>
            <path d="M-286.776,292.07a.732.732,0,0,0,.912.482l2.585-.836a.771.771,0,0,0,.482-.938.732.732,0,0,0-.912-.482l-2.56.836a.787.787,0,0,0-.507.938"
                  transform="translate(294.771 -286.412)" fill="#2f9dfb"/>
            <path d="M-308.092,308.426a.732.732,0,0,1-.152-1.039l1.571-2.18a.7.7,0,0,1,1.014-.152.732.732,0,0,1,.152,1.039l-1.571,2.18a.748.748,0,0,1-1.014.152"
                  transform="translate(310.441 -297.017)" fill="#2f9dfb"/>
            <path d="M-287.659,308.426a.732.732,0,0,0,.152-1.039l-1.571-2.18a.7.7,0,0,0-1.014-.152.732.732,0,0,0-.152,1.039l1.571,2.18a.748.748,0,0,0,1.014.152"
                  transform="translate(297.321 -297.017)" fill="#2f9dfb"/>
        </g>
    </g>
</svg>
