<svg xmlns="http://www.w3.org/2000/svg" viewBox="0 0 107.387 18.041">
    <path d="M28.649,18.518H26V9.16h9.535v9.358H32.885V10.978H28.649v7.539Z" transform="translate(-8.293 -2.922)" fill="#1c5377"/>
    <path d="M44.209,16.186c0-1.893,1.171-2.268,1.907-2.268s1.893.375,1.893,2.268c0,1.178-.5,2.3-1.893,2.3S44.209,17.364,44.209,16.186ZM41.88,12.781h0v9.262h2.438V18.9a3.555,3.555,0,0,0,2.472.947,3.467,3.467,0,0,0,3.753-3.637,3.464,3.464,0,0,0-3.7-3.664,3.507,3.507,0,0,0-2.629,1.076h-.054v-.817Z" transform="translate(-13.358 -4.002)" fill="#1c5377"/>
    <path d="M60.928,18.9A3.671,3.671,0,0,1,58.2,19.972,2.45,2.45,0,0,1,55.48,17.18V12.93h2.438v3.93c0,1.362.47,1.75,1.362,1.75a1.641,1.641,0,0,0,1.648-1.873V12.93h2.438v6.81H60.928Z" transform="translate(-17.696 -4.124)" fill="#1c5377"/>
    <path d="M71.058,14.292h1.314c.681,0,1.28.109,1.28.681s-.926.627-1.362.627H71.058V14.306ZM68.62,12.93h0v6.81h4.842c1.764,0,2.983-.347,2.983-1.737,0-1.069-.593-1.539-1.941-1.778v-.041a1.7,1.7,0,0,0,1.655-1.594c0-1.641-1.927-1.641-2.683-1.641Zm2.438,3.93H72.55c1.158,0,1.362.347,1.362.8,0,.293-.157.681-1.362.681H71.058Z" transform="translate(-21.887 -4.124)" fill="#1c5377"/>
    <path d="M86.187,16.8A1.682,1.682,0,0,1,84.4,18.5c-.443,0-1.246-.143-1.246-.79,0-.763.913-.906,1.43-.974a5.244,5.244,0,0,0,1.6-.361V16.8Zm-2.826-1.791h0c0-1.008,1.062-1.083,1.491-1.083.279,0,1.287,0,1.321.892v.191c-.048.681-.681.531-2.486.763-1.478.2-3.037.572-3.037,2.125,0,.558.245,1.961,2.84,1.961a3.862,3.862,0,0,0,2.724-.919h.048l.2.681h2.595V19.5c-.463-.089-.5-.545-.477-1.28l.048-3.106c0-.783-.068-2.54-3.739-2.54-.885,0-3.719.082-3.834,2.452Z" transform="translate(-25.724 -4.009)" fill="#1c5377"/>
    <path d="M92.74,14.292V12.93h7.825v1.362h-2.7V19.72H95.43V14.292Z" transform="translate(-29.58 -4.124)" fill="#1c5377"/>
    <path d="M107.562,14.452h2.179c.64,0,1.927.068,1.927,1.192,0,.885-.933,1.056-1.975,1.056h-2.132Zm0-3.473h6.082V9.16H104.92v9.358h5.353c2.6,0,4.27-.906,4.27-2.82,0-3-3.337-3.065-4.27-3.065h-2.724V10.978Z" transform="translate(-33.465 -2.922)" fill="#1c5377"/>
    <path d="M125.267,16.8a1.682,1.682,0,0,1-1.784,1.7c-.45,0-1.246-.143-1.246-.79,0-.763.913-.906,1.423-.974a5.292,5.292,0,0,0,1.607-.361V16.8Zm-2.826-1.791h0c0-1.008,1.062-1.083,1.492-1.083.272,0,1.287,0,1.314.892v.191c-.048.681-.681.531-2.486.763-1.471.2-3.031.572-3.031,2.125,0,.558.238,1.961,2.84,1.961a3.834,3.834,0,0,0,2.724-.919h.068l.2.681h2.568V19.5c-.463-.089-.5-.545-.484-1.28l.048-3.106c0-.783-.061-2.54-3.739-2.54-.879,0-3.719.082-3.827,2.452Z" transform="translate(-38.188 -4.009)" fill="#1c5377"/>
    <path d="M135.388,19.72H132.95V12.93h2.438v2.554h2.935V12.93h2.438v6.79h-2.438V16.846h-2.935V19.72Z" transform="translate(-42.405 -4.124)" fill="#1c5377"/>
    <path d="M151.071,12.93h2.717l-3.358,3.18,3.514,3.61h-2.854l-2.636-2.969h-.048V19.72H145.97V12.93h2.438v2.724h.048l2.615-2.724Z" transform="translate(-46.558 -4.124)" fill="#1c5377"/>
    <path d="M0,20.072H6.109v-6.1H0v6.1Z" transform="translate(0 -4.456)" fill="#1c5377"/>
    <path d="M0,0V7.6H1.621c4.25,0,6.409,2.159,6.409,6.409v1.614h7.635V0ZM12.4,3.228h0V12.4h-1.24A8.474,8.474,0,0,0,3.235,4.474V3.228Z" fill="#1c5377"/>
</svg>
